<?xml version="1.0" encoding="iso-8859-1"?>
<!-- Uploaded to: SVG Repo, www.svgrepo.com, Generator: SVG Repo Mixer Tools -->
<svg fill="#000000" height="800px" width="800px" version="1.1" id="Layer_1" xmlns="http://www.w3.org/2000/svg" xmlns:xlink="http://www.w3.org/1999/xlink" 
	 viewBox="0 0 512.002 512.002" xml:space="preserve">
<g>
	<g>
		<g>
			<path d="M3.797,408.168c3.925,2.611,9.216,1.553,11.836-2.364l34.952-52.428l11.003-3.663c31.812-10.607,66.867-10.607,98.697,0
				l10.996,3.663l6.927,10.389l28.026,42.04c0.035,0.053,0.077,0.097,0.113,0.148c0.152,0.217,0.31,0.428,0.479,0.627
				c0.084,0.099,0.173,0.192,0.261,0.286c0.136,0.147,0.275,0.289,0.419,0.425c0.098,0.092,0.197,0.181,0.298,0.267
				c0.153,0.13,0.31,0.252,0.47,0.37c0.098,0.072,0.193,0.147,0.293,0.214c0.253,0.17,0.512,0.329,0.779,0.47
				c0.068,0.036,0.138,0.063,0.207,0.097c0.214,0.106,0.431,0.205,0.653,0.292c0.111,0.043,0.223,0.08,0.335,0.119
				c0.189,0.066,0.38,0.125,0.574,0.178c0.115,0.031,0.229,0.061,0.345,0.087c0.214,0.048,0.429,0.086,0.646,0.118
				c0.093,0.014,0.184,0.032,0.277,0.042c0.312,0.035,0.626,0.056,0.941,0.057c0.006,0,0.013,0.001,0.019,0.001
				c0.021,0,0.042-0.004,0.063-0.005c0.342-0.002,0.684-0.03,1.025-0.073c0.08-0.01,0.158-0.021,0.238-0.033
				c0.739-0.116,1.468-0.331,2.172-0.649c0.065-0.029,0.129-0.059,0.194-0.09c0.353-0.17,0.701-0.356,1.036-0.579
				c0.832-0.557,1.527-1.239,2.093-1.999c1.1-1.473,1.692-3.252,1.703-5.06c0.004-0.705-0.088-1.411-0.261-2.106
				c-0.231-0.927-0.612-1.833-1.171-2.674l-11.619-17.428c0.697,0.179,1.413,0.279,2.134,0.279c1.783,0,3.593-0.555,5.129-1.715
				c5.111-3.849,9.446-9.395,12.868-16.478c2.057-4.241,0.282-9.344-3.959-11.392c-4.233-2.065-9.344-0.282-11.401,3.959
				c-2.227,4.617-4.847,8.073-7.774,10.274c-1.873,1.41-3.001,3.445-3.313,5.598l-35.253-52.88l16.414-45.954l34.607-19.774
				l13.03,26.061c1.451,2.901,4.42,4.719,7.637,4.719c0.145,0,0.299,0,0.444-0.009c3.396-0.179,6.357-2.347,7.552-5.53
				l17.604-46.959l17.604,46.959c1.195,3.183,4.156,5.35,7.543,5.53c3.524,0.179,6.571-1.673,8.081-4.71l13.03-26.061l34.612,19.772
				l47.624,133.345c1.246,3.49,4.531,5.666,8.038,5.666c0.956,0,1.92-0.162,2.867-0.503c4.437-1.587,6.75-6.468,5.171-10.906
				l-35.504-99.41l9.315-6.203l114.517,114.517c1.664,1.664,3.849,2.5,6.033,2.5c2.185,0,4.369-0.836,6.033-2.5
				c3.337-3.336,3.337-8.73,0-12.066L390.033,275.568c-2.867-2.867-7.373-3.319-10.769-1.067l-11.579,7.718l-43.913-122.956
				c-1.212-3.396-4.429-5.658-8.038-5.658h-6.195c0.399-1.935,0.857-4.098,1.376-6.463c1.016-4.599-1.894-9.156-6.494-10.163
				c-4.574-1.007-9.156,1.894-10.172,6.494c-0.871,3.96-1.579,7.393-2.125,10.132h-18.892c0.013-1.412,0.021-2.958,0.021-4.63
				l-0.009-3.968c-0.034-4.702-3.84-8.482-8.533-8.482h-0.051c-4.71,0.026-8.516,3.866-8.482,8.576l0.009,3.874
				c0,1.68-0.009,3.226-0.022,4.63h-19.338c-0.601-2.759-1.384-6.227-2.349-10.228c-1.101-4.582-5.726-7.39-10.291-6.289
				c-4.582,1.101-7.398,5.709-6.298,10.291c0.547,2.269,1.031,4.351,1.456,6.226h-6.01c-3.61,0-6.827,2.261-8.038,5.658
				l-49.853,139.583l-37.409-56.114c-3.166-4.745-11.034-4.745-14.199,0l-102.4,153.6C-1.178,400.257-0.119,405.556,3.797,408.168z
				 M219.349,170.672h90.368l26.866,75.224l-25.151-14.369c-2.031-1.169-4.463-1.442-6.707-0.759
				c-2.244,0.683-4.105,2.253-5.163,4.352l-8.311,16.631l-18.722-49.946c-1.254-3.328-4.437-5.538-7.996-5.538
				c-3.558,0-6.741,2.21-7.996,5.538l-18.722,49.937l-8.311-16.623c-1.058-2.099-2.918-3.669-5.163-4.352
				c-2.253-0.683-4.676-0.41-6.707,0.759l-25.156,14.376L219.349,170.672z M110.933,262.853l39.712,59.568
				c0.007,0.011,0.012,0.022,0.019,0.033l5.47,8.204c-29.476-7.934-60.935-7.938-90.405,0L110.933,262.853z"/>
			<path d="M317.024,376.256c1.519,1.118,3.277,1.647,5.026,1.647c2.628,0,5.222-1.212,6.895-3.49
				c2.782-3.806,1.954-9.148-1.852-11.93c-3.268-2.389-6.212-5.82-8.772-10.197c-2.372-4.07-7.595-5.419-11.674-3.063
				c-4.062,2.381-5.436,7.603-3.063,11.674C307.331,367.313,311.853,372.476,317.024,376.256z"/>
			<path d="M298.917,290.146c-4.565,0.136-8.636,3.575-8.781,8.277l-0.017,1.886c0,2.901,0.111,8.883,0.853,16.307
				c0.444,4.395,4.147,7.68,8.482,7.68c0.282,0,0.572-0.009,0.862-0.043c4.685-0.469,8.107-4.651,7.637-9.344
				c-0.674-6.682-0.768-12.015-0.768-14.601l0.009-1.408C307.322,294.2,303.619,290.283,298.917,290.146z"/>
			<path d="M229.73,324.28c0.162,0.009,0.324,0.009,0.486,0.009c4.489,0,8.252-3.516,8.516-8.055
				c0.247-4.471,0.324-8.414,0.324-11.435c0-4.104-0.137-6.579-0.137-6.579c-0.247-4.693-4.25-8.294-8.969-8.064
				c-4.702,0.247-8.311,4.25-8.073,8.951c0,0.111,0.111,2.236,0.111,5.692c0,2.773-0.068,6.374-0.307,10.479
				C221.427,319.979,225.02,324.007,229.73,324.28z"/>
			<path d="M128,426.668c-5.76,0-11.085,1.911-15.36,5.137c-4.83-6.426-11.861-11.093-19.968-12.877
				c-3.285-10.342-12.988-17.86-24.405-17.86c-11.127,0-20.617,7.134-24.141,17.067h-9.992C15.309,418.134,0,433.443,0,452.268
				c0,4.71,3.823,8.533,8.533,8.533s8.533-3.823,8.533-8.533c0-9.412,7.654-17.067,17.067-17.067H51.2
				c4.71,0,8.533-3.823,8.533-8.533c0-4.702,3.831-8.533,8.533-8.533s8.533,3.831,8.533,8.533c0,4.71,3.823,8.533,8.533,8.533
				c9.412,0,17.067,7.654,17.067,17.067c0,4.71,3.823,8.533,8.533,8.533s8.533-3.823,8.533-8.533c0-4.702,3.831-8.533,8.533-8.533
				s8.533,3.831,8.533,8.533c0,4.71,3.823,8.533,8.533,8.533c4.71,0,8.533-3.823,8.533-8.533
				C153.6,438.154,142.114,426.668,128,426.668z"/>
			<path d="M349.867,443.734c4.71,0,8.533-3.823,8.533-8.533c0-14.114-11.486-25.6-25.6-25.6c-5.76,0-11.085,1.911-15.36,5.137
				c-4.83-6.426-11.861-11.093-19.968-12.877c-3.285-10.342-12.988-17.86-24.405-17.86c-11.529,0-21.291,7.654-24.491,18.142
				c-10.513,3.191-18.176,12.971-18.176,24.508c0,14.123,11.486,25.617,25.6,25.617c4.71,0,8.533-3.823,8.533-8.533
				s-3.823-8.533-8.533-8.533c-4.702,0-8.533-3.84-8.533-8.55c0-4.565,3.601-8.303,8.107-8.525c4.838,0.068,8.96-3.678,8.96-8.525
				c0-4.702,3.831-8.533,8.533-8.533c4.702,0,8.533,3.831,8.533,8.533c0,4.71,3.823,8.533,8.533,8.533
				c9.412,0,17.067,7.654,17.067,17.067c0,4.71,3.823,8.533,8.533,8.533s8.533-3.823,8.533-8.533c0-4.702,3.831-8.533,8.533-8.533
				c4.702,0,8.533,3.831,8.533,8.533C341.333,439.911,345.156,443.734,349.867,443.734z"/>
			<path d="M256,469.334c-5.76,0-11.085,1.911-15.36,5.137c-4.83-6.426-11.861-11.093-19.968-12.877
				c-3.285-10.342-12.988-17.86-24.405-17.86c-11.529,0-21.291,7.654-24.491,18.142c-10.513,3.191-18.176,12.971-18.176,24.508
				c0,14.123,11.486,25.617,25.6,25.617c4.71,0,8.533-3.823,8.533-8.533s-3.823-8.533-8.533-8.533c-4.702,0-8.533-3.84-8.533-8.55
				c0-4.565,3.601-8.303,8.107-8.525c4.821,0.162,8.96-3.669,8.96-8.525c0-4.702,3.831-8.533,8.533-8.533
				c4.702,0,8.533,3.831,8.533,8.533c0,4.71,3.823,8.533,8.533,8.533c9.412,0,17.067,7.654,17.067,17.067
				c0,4.71,3.823,8.533,8.533,8.533s8.533-3.823,8.533-8.533c0-4.702,3.831-8.533,8.533-8.533c4.702,0,8.533,3.831,8.533,8.533
				c0,4.71,3.823,8.533,8.533,8.533c4.71,0,8.533-3.823,8.533-8.533C281.6,480.82,270.114,469.334,256,469.334z"/>
			<path d="M443.733,469.334c-5.76,0-11.085,1.911-15.36,5.137c-4.83-6.426-11.861-11.093-19.968-12.877
				c-3.285-10.342-12.988-17.86-24.405-17.86c-11.529,0-21.291,7.654-24.491,18.142c-10.513,3.191-18.176,12.971-18.176,24.508
				c0,14.123,11.486,25.617,25.6,25.617c4.71,0,8.533-3.823,8.533-8.533s-3.823-8.533-8.533-8.533c-4.702,0-8.533-3.84-8.533-8.55
				c0-4.565,3.601-8.303,8.107-8.525c4.83,0.162,8.96-3.669,8.96-8.525c0-4.702,3.831-8.533,8.533-8.533
				c4.702,0,8.533,3.831,8.533,8.533c0,4.71,3.823,8.533,8.533,8.533c9.412,0,17.067,7.654,17.067,17.067
				c0,4.71,3.823,8.533,8.533,8.533s8.533-3.823,8.533-8.533c0-4.702,3.831-8.533,8.533-8.533c4.702,0,8.533,3.831,8.533,8.533
				c0,4.71,3.823,8.533,8.533,8.533s8.533-3.823,8.533-8.533C469.333,480.82,457.847,469.334,443.733,469.334z"/>
			<path d="M486.4,435.201c-5.76,0-11.085,1.911-15.36,5.137c-4.83-6.426-11.861-11.093-19.968-12.877
				c-3.285-10.342-12.988-17.86-24.405-17.86c-14.114,0-25.591,11.477-25.6,25.591v0.009c0,4.71,3.823,8.533,8.533,8.533
				s8.533-3.823,8.533-8.533c0-4.702,3.831-8.533,8.533-8.533s8.533,3.831,8.533,8.533c0,4.71,3.823,8.533,8.533,8.533
				c9.412,0,17.067,7.654,17.067,17.067c0,4.71,3.823,8.533,8.533,8.533s8.533-3.823,8.533-8.533c0-4.702,3.831-8.533,8.533-8.533
				s8.533,3.831,8.533,8.533c0,4.71,3.823,8.533,8.533,8.533s8.533-3.823,8.533-8.533C512,446.687,500.514,435.201,486.4,435.201z"
				/>
			<path d="M407.224,165.646l29.372,16.589l-22.647,25.011c-3.157,3.49-2.893,8.892,0.597,12.049c1.638,1.485,3.686,2.21,5.726,2.21
				c2.33,0,4.642-0.947,6.332-2.807l29.798-32.913c1.741-1.92,2.509-4.531,2.099-7.091c-0.418-2.551-1.971-4.787-4.224-6.067
				l-38.647-21.845c-4.113-2.321-9.318-0.87-11.631,3.234C401.677,158.119,403.128,163.325,407.224,165.646z"/>
			<path d="M363.72,181.37l31.607,11.776L376.904,221.4c-2.568,3.951-1.459,9.233,2.492,11.81c1.442,0.939,3.055,1.382,4.651,1.382
				c2.79,0,5.521-1.365,7.159-3.874l24.243-37.188c1.417-2.167,1.766-4.864,0.956-7.33c-0.811-2.458-2.697-4.42-5.129-5.325
				l-41.6-15.497c-4.429-1.647-9.327,0.597-10.974,5.018C357.055,174.817,359.299,179.723,363.72,181.37z"/>
			<path d="M454.938,160.266l26.334,21.069l-26.334,21.069c-3.686,2.944-4.275,8.311-1.331,11.998c1.681,2.108,4.164,3.2,6.664,3.2
				c1.869,0,3.755-0.614,5.325-1.869l34.671-27.733c2.022-1.621,3.2-4.07,3.2-6.665c0-2.594-1.178-5.043-3.2-6.664l-34.671-27.733
				c-3.678-2.935-9.045-2.355-11.989,1.331C450.662,151.954,451.251,157.322,454.938,160.266z"/>
			<path d="M339.321,58.984c2.313,0,4.625-0.939,6.306-2.782c2.569-2.807,5.035-4.685,7.339-5.581
				c4.395-1.715,6.562-6.665,4.847-11.051c-1.707-4.403-6.665-6.562-11.042-4.855c-4.779,1.869-9.404,5.222-13.747,9.984
				c-3.174,3.473-2.935,8.875,0.546,12.049C335.208,58.25,337.265,58.984,339.321,58.984z"/>
			<path d="M311.067,84.789c-2.048,5.453-3.959,11.042-5.717,16.614c-1.417,4.497,1.075,9.293,5.572,10.709
				c0.853,0.265,1.715,0.393,2.569,0.393c3.618,0,6.989-2.321,8.132-5.965c1.673-5.274,3.473-10.581,5.419-15.735
				c1.656-4.412-0.572-9.327-4.975-10.991C317.638,78.167,312.723,80.386,311.067,84.789z"/>
			<path d="M206.112,107.239c1.246,3.499,4.531,5.675,8.038,5.675c0.947,0,1.92-0.162,2.859-0.503
				c4.446-1.579,6.758-6.46,5.18-10.897c-2.099-5.905-4.284-11.443-6.477-16.461c-1.886-4.318-6.921-6.289-11.238-4.403
				c-4.318,1.886-6.289,6.921-4.395,11.238C202.109,96.546,204.14,101.709,206.112,107.239z"/>
			<path d="M176.108,59.153c0.99,0.384,2.022,0.939,3.063,1.638c1.468,0.99,3.123,1.459,4.762,1.459
				c2.739,0,5.436-1.323,7.083-3.763c2.637-3.908,1.604-9.216-2.304-11.844c-2.091-1.408-4.25-2.551-6.417-3.396
				c-4.378-1.698-9.335,0.461-11.051,4.855C169.538,52.497,171.714,57.447,176.108,59.153z"/>
			<path d="M240.034,67.167c1.869,6.152,6.005,11.314,11.42,14.548c-0.947,1.825-1.249,3.991-0.671,6.136
				c1.143,4.301,2.133,9.574,2.935,15.684c0.563,4.292,4.233,7.424,8.448,7.424c0.367,0,0.742-0.026,1.118-0.068
				c4.676-0.614,7.97-4.898,7.356-9.574c-0.786-6-1.755-11.364-2.891-15.982h13.85c18.825,0,34.133-15.309,34.133-34.133
				c0-16.307-11.486-29.978-26.795-33.34c-3.285-10.342-12.988-17.86-24.405-17.86c-11.537,0-21.308,7.663-24.499,18.167
				c-10.505,3.191-18.167,12.962-18.167,24.499C221.867,54.205,229.53,63.975,240.034,67.167z M247.467,34.134
				c4.71,0,8.533-3.823,8.533-8.533c0-4.702,3.831-8.533,8.533-8.533c4.702,0,8.533,3.831,8.533,8.533
				c0,4.71,3.823,8.533,8.533,8.533c9.412,0,17.067,7.654,17.067,17.067c0,9.412-7.654,17.067-17.067,17.067h-17.067
				c-4.702,0-8.533-3.831-8.533-8.533c0-4.71-3.823-8.533-8.533-8.533c-4.702,0-8.533-3.831-8.533-8.533
				C238.933,37.966,242.765,34.134,247.467,34.134z"/>
		</g>
	</g>
</g>
</svg>